<svg xmlns="http://www.w3.org/2000/svg" viewBox="0 0 937 200" fill="#ffffff">
  <path d="M1.27015 173.64C1.27015 180.38 6.74015 185.85 13.4801 185.85L31.8802 187.84V126.67C31.8802 125.1 32.6302 123.73 33.7702 122.83C34.7402 121.45 36.3702 120.59 38.1602 120.75L124.3 127.8C126.99 128.02 129 130.38 128.78 133.08C128.57 135.64 126.43 137.58 123.91 137.58C123.78 137.58 123.64 137.58 123.51 137.56L41.6701 130.87V188.91L140.35 199.23C143.29 199.54 145.84 197.23 145.84 194.28V91.6799L36.7501 83.0199C34.0801 82.8099 31.7802 80.6199 31.8802 77.9399C31.9802 75.1399 34.3502 73.0099 37.1602 73.2299L145.84 81.8599V52.9099C145.84 46.7999 141.13 41.7199 135.04 41.2599L4.31015 31.3699C1.97015 31.1899 -0.0198505 33.0599 0.000149459 35.4099L1.27015 173.66V173.64Z" />
  <path d="M121.55 0C108.61 0 101.85 -1.33514e-05 86.4898 3.57999L10.1998 19.68C8.99978 20.14 9.25979 21.91 10.5398 22.01L142.26 31.98C147.34 32.36 152.45 31.53 157.14 29.54L248.19 8.44C249.05 8.07 248.84 6.79998 247.91 6.72998L121.56 0H121.55Z" />
  <path d="M192.5 87.87C191.87 88.14 191.21 88.27 190.57 88.27C188.67 88.27 186.87 87.16 186.07 85.31C185 82.83 186.15 79.95 188.63 78.88L260.85 60.3V20.31C260.85 20.31 260.85 20.27 260.85 20.25C260.83 17.13 257.42 15.17 254.55 16.39L163.25 37.59C158.63 39.55 155.64 44.07 155.64 49.09V86.42C155.7 86.79 155.72 87.16 155.69 87.55C155.69 87.62 155.65 87.67 155.64 87.74V145.43L224.83 126.84C227.29 125.71 230.19 126.78 231.33 129.23C232.46 131.68 231.39 134.59 228.94 135.73L155.79 156.15C155.79 156.15 155.69 156.18 155.65 156.2V194.55C155.65 197.51 158.72 199.48 161.41 198.24L252.71 171.1C257.68 168.81 260.87 163.83 260.87 158.35V70.96L192.52 87.88L192.5 87.87Z" />
  <path d="M312.62 121.92V12.7899H365.75V27.2399H330.9V56.2599H359V70.7699H330.9V121.92H312.62Z" />
  <path d="M368.34 121.92L385.46 12.7899H409.6L427.81 121.92H410.76L407.9 102.45H388.53L385.94 121.92H368.34ZM390.3 89.1199H405.99L397.94 34.3099H397.67L390.3 89.1199Z" />
  <path d="M462.26 123.16C457.26 123.16 453.09 122.45 449.75 121.02C446.41 119.59 443.77 117.51 441.84 114.76C439.91 112.01 438.53 108.66 437.72 104.72C436.9 100.77 436.49 96.28 436.49 91.23V81.5H453.81V92.47C453.81 98.34 454.36 102.56 455.45 105.12C456.54 107.68 458.7 108.97 461.93 108.97C464.11 108.97 465.76 108.5 466.87 107.57C467.98 106.64 468.73 105.15 469.12 103.1C469.51 101.05 469.7 98.38 469.7 95.07C469.7 90.98 468.76 87.24 466.87 83.85C464.98 80.46 462.13 76.95 458.31 73.31L449.44 65C446.99 62.68 444.77 60.22 442.79 57.62C440.81 55.02 439.24 52.11 438.08 48.91C436.92 45.71 436.34 42.12 436.34 38.15C436.34 32.41 437.11 27.55 438.66 23.58C440.21 19.61 442.82 16.6 446.5 14.56C450.18 12.51 455.23 11.49 461.64 11.49C466.46 11.49 470.43 12.16 473.54 13.51C476.65 14.85 479.09 16.82 480.84 19.4C482.59 21.98 483.83 25.13 484.56 28.83C485.29 32.53 485.65 36.75 485.65 41.51V48.27H468.8V40.46C468.8 37.15 468.61 34.4 468.22 32.21C467.83 30.02 467.12 28.38 466.07 27.28C465.02 26.19 463.5 25.64 461.5 25.64C459.5 25.64 458.04 26.02 456.86 26.79C455.68 27.56 454.82 28.73 454.3 30.32C453.78 31.91 453.52 33.97 453.52 36.49C453.52 38.76 453.84 40.73 454.48 42.38C455.12 44.03 456.09 45.62 457.41 47.15C458.73 48.68 460.37 50.4 462.32 52.3L472.21 62.04C476.94 66.67 480.62 71.48 483.26 76.49C485.9 81.49 487.22 87.07 487.22 93.23C487.22 99.76 486.44 105.25 484.9 109.69C483.35 114.13 480.76 117.49 477.12 119.77C473.48 122.04 468.53 123.18 462.25 123.18L462.26 123.16Z" />
  <path d="M593.06 123.16C588.06 123.16 583.89 122.45 580.55 121.02C577.21 119.59 574.57 117.51 572.64 114.76C570.71 112.01 569.33 108.66 568.52 104.72C567.7 100.77 567.29 96.28 567.29 91.23V81.5H584.61V92.47C584.61 98.34 585.16 102.56 586.25 105.12C587.34 107.68 589.5 108.97 592.73 108.97C594.91 108.97 596.56 108.5 597.67 107.57C598.78 106.64 599.53 105.15 599.92 103.1C600.31 101.05 600.5 98.38 600.5 95.07C600.5 90.98 599.56 87.24 597.67 83.85C595.78 80.46 592.93 76.95 589.11 73.31L580.24 65C577.79 62.68 575.57 60.22 573.59 57.62C571.61 55.02 570.04 52.11 568.88 48.91C567.72 45.71 567.14 42.12 567.14 38.15C567.14 32.41 567.91 27.55 569.46 23.58C571.01 19.61 573.62 16.6 577.3 14.56C580.98 12.51 586.03 11.49 592.44 11.49C597.26 11.49 601.23 12.16 604.34 13.51C607.45 14.85 609.89 16.82 611.64 19.4C613.39 21.98 614.63 25.13 615.36 28.83C616.09 32.53 616.45 36.75 616.45 41.51V48.27H599.6V40.46C599.6 37.15 599.41 34.4 599.02 32.21C598.63 30.02 597.92 28.38 596.87 27.28C595.82 26.19 594.3 25.64 592.3 25.64C590.3 25.64 588.84 26.02 587.66 26.79C586.48 27.56 585.62 28.73 585.1 30.32C584.58 31.91 584.32 33.97 584.32 36.49C584.32 38.76 584.64 40.73 585.28 42.38C585.92 44.03 586.89 45.62 588.21 47.15C589.53 48.68 591.17 50.4 593.12 52.3L603.01 62.04C607.74 66.67 611.42 71.48 614.06 76.49C616.7 81.49 618.02 87.07 618.02 93.23C618.02 99.76 617.24 105.25 615.7 109.69C614.15 114.13 611.56 117.49 607.92 119.77C604.28 122.04 599.33 123.18 593.05 123.18L593.06 123.16Z" />
  <path d="M689.05 121.92V12.7899H719.27C725.54 12.7899 730.23 13.9099 733.32 16.1399C736.41 18.3699 738.45 21.6399 739.42 25.9399C740.4 30.2399 740.89 35.4899 740.89 41.6899C740.89 47.8899 740.17 53.1299 738.74 56.7899C737.31 60.4499 734.39 62.8999 729.98 64.1399C732.07 64.4699 733.82 65.2499 735.23 66.4699C736.64 67.6899 737.78 69.4699 738.64 71.7999C739.5 74.1399 740.13 77.1299 740.52 80.7899C740.91 84.4499 741.1 88.9199 741.1 94.2099V97.6799C741.1 99.5799 741.1 101.83 741.13 104.41C741.16 106.99 741.19 109.57 741.23 112.13C741.27 114.69 741.34 116.88 741.43 118.7C741.52 120.52 741.63 121.59 741.77 121.92H723.49C723.35 121.71 723.25 120.65 723.18 118.73C723.11 116.81 723.04 114.36 722.98 111.38C722.92 108.4 722.87 105.2 722.84 101.77C722.81 98.3399 722.81 94.9599 722.81 91.6299V82.7899C722.81 79.5299 722.55 77.0499 722.03 75.3799C721.51 73.7099 720.55 72.5399 719.16 71.8799C717.77 71.2199 715.78 70.8299 713.19 70.6999L707.32 70.3899V121.92H689.04H689.05ZM707.4 57.4999H714.7C716.93 57.4999 718.62 57.0399 719.78 56.1399C720.94 55.2299 721.74 53.5599 722.17 51.1199C722.6 48.6799 722.82 45.1699 722.82 40.5799V39.8999C722.82 36.0499 722.62 33.0999 722.2 31.0299C721.79 28.9599 720.94 27.5399 719.64 26.7499C718.35 25.9699 716.33 25.5699 713.61 25.5699H707.4V57.4999Z" />
  <path d="M782.29 123.16C776.06 123.16 770.99 122.1 767.08 119.97C763.17 117.84 760.3 114.62 758.49 110.3C756.67 105.98 755.76 100.51 755.76 93.8999V12.7999H774.04V93.5899C774.04 96.6499 774.19 99.3399 774.48 101.65C774.78 103.97 775.49 105.76 776.63 107.05C777.77 108.33 779.63 108.97 782.22 108.97C784.81 108.97 786.69 108.34 787.85 107.08C789.01 105.82 789.72 104.03 790 101.72C790.27 99.4099 790.41 96.6999 790.41 93.5999V12.8099H808.69V93.9099C808.69 100.52 807.79 105.99 806 110.31C804.2 114.63 801.36 117.85 797.47 119.98C793.58 122.11 788.52 123.17 782.29 123.17V123.16Z" />
  <path d="M901.51 121.92V27.1799H884.05V12.7999H936.63V27.1799H919.72V121.92H901.51Z" />
  <path d="M641.08 121.92V27.1799H623.62V12.7999H676.2V27.1799H659.29V121.92H641.08Z" />
  <path d="M510.65 121.92V27.1799H493.19V12.7999H545.77V27.1799H528.86V121.92H510.65Z" />
  <path d="M856.77 90.7899V92.3499C856.77 98.0999 856.23 102.29 855.13 104.94C854.04 107.58 851.95 108.91 848.86 108.91C846.81 108.91 845.22 108.34 844.08 107.21C842.94 106.07 842.14 104.3 841.66 101.88C841.18 99.4599 840.94 96.3499 840.94 92.5499V41.5799C840.94 36.6599 841.5 32.8299 842.61 30.0799C843.72 27.3299 845.94 25.9599 849.26 25.9599C852.26 25.9599 854.26 27.2299 855.26 29.7699C856.26 32.3099 856.76 36.2699 856.76 41.6399V43.9399H874.43V40.5799C874.43 36.1099 873.96 32.0999 873.03 28.5199C872.1 24.9499 870.62 21.8999 868.6 19.3699C866.58 16.8499 863.96 14.9199 860.76 13.5699C857.55 12.2299 853.68 11.5499 849.13 11.5499C844.13 11.5499 839.92 12.3199 836.51 13.8399C833.1 15.3699 830.37 17.5599 828.32 20.4099C826.27 23.2599 824.8 26.6899 823.89 30.6999C822.98 34.7099 822.53 39.2099 822.53 44.2199V91.7799C822.53 98.4299 823.5 104.11 825.43 108.8C827.36 113.49 830.26 117.06 834.13 119.49C837.99 121.93 842.83 123.15 848.66 123.15C854.8 123.15 859.79 122.01 863.63 119.74C867.47 117.47 870.28 114.03 872.05 109.42C873.82 104.81 874.71 99.0499 874.71 92.1499V90.7799H856.77V90.7899Z" />
  <path d="M317.28 184.3H312.62V149.98H335.63V154.25H317.28V184.31V184.3ZM316.81 166.21H333.63V170.43H316.81V166.21Z" />
  <path d="M348.81 184.59C346.98 184.59 345.37 184.26 343.99 183.61C342.61 182.96 341.54 182.05 340.8 180.89C340.05 179.73 339.68 178.41 339.68 176.94C339.68 175.47 340 174.26 340.64 173.12C341.28 171.98 342.32 171.06 343.76 170.37C345.2 169.68 347.15 169.34 349.61 169.34H357.44V172.72H349.8C347.56 172.72 346.06 173.11 345.28 173.9C344.5 174.69 344.12 175.63 344.12 176.74C344.12 178.02 344.6 179.04 345.56 179.81C346.52 180.58 347.86 180.96 349.57 180.96C351.28 180.96 352.71 180.57 353.97 179.78C355.23 178.99 356.14 177.85 356.7 176.35L357.58 179.59C356.99 181.13 355.95 182.34 354.46 183.24C352.97 184.14 351.09 184.59 348.82 184.59H348.81ZM356.92 184.3V178.81L356.69 177.78V168.41C356.69 166.42 356.14 164.87 355.04 163.78C353.94 162.69 352.28 162.14 350.08 162.14C348.62 162.14 347.19 162.39 345.79 162.9C344.39 163.41 343.21 164.09 342.25 164.94L340.39 161.41C341.66 160.33 343.19 159.51 344.98 158.93C346.77 158.36 348.64 158.07 350.59 158.07C353.97 158.07 356.58 158.94 358.42 160.67C360.25 162.4 361.17 165.05 361.17 168.61V184.3H356.93H356.92Z" />
  <path d="M377.46 184.59C375.41 184.59 373.46 184.3 371.61 183.71C369.76 183.12 368.31 182.4 367.25 181.55L369.11 177.82C370.17 178.57 371.47 179.21 373.02 179.73C374.57 180.25 376.16 180.52 377.77 180.52C379.85 180.52 381.35 180.21 382.27 179.59C383.19 178.97 383.64 178.1 383.64 176.99C383.64 176.17 383.36 175.53 382.8 175.08C382.24 174.62 381.5 174.28 380.59 174.05C379.68 173.82 378.66 173.62 377.54 173.44C376.42 173.26 375.3 173.03 374.19 172.75C373.07 172.47 372.05 172.08 371.12 171.57C370.19 171.06 369.44 170.36 368.88 169.46C368.32 168.56 368.04 167.36 368.04 165.86C368.04 164.36 368.46 162.92 369.3 161.74C370.14 160.56 371.33 159.66 372.86 159.02C374.39 158.38 376.22 158.06 378.33 158.06C379.94 158.06 381.58 158.26 383.24 158.67C384.9 159.08 386.26 159.66 387.32 160.41L385.41 164.14C384.29 163.36 383.13 162.82 381.92 162.52C380.71 162.23 379.5 162.08 378.29 162.08C376.33 162.08 374.87 162.42 373.91 163.09C372.95 163.76 372.47 164.62 372.47 165.66C372.47 166.54 372.76 167.22 373.33 167.7C373.9 168.17 374.65 168.54 375.57 168.8C376.49 169.06 377.5 169.28 378.62 169.46C379.74 169.64 380.86 169.87 381.97 170.15C383.09 170.43 384.1 170.81 385.02 171.3C385.94 171.79 386.68 172.48 387.26 173.36C387.83 174.24 388.12 175.42 388.12 176.89C388.12 178.46 387.68 179.82 386.82 180.96C385.95 182.1 384.72 182.99 383.14 183.63C381.56 184.27 379.66 184.59 377.46 184.59Z" />
  <path d="M391.11 162.19V158.32H406.85V162.19H391.11ZM403.13 184.59C400.65 184.59 398.72 183.89 397.35 182.48C395.98 181.07 395.3 179.06 395.3 176.45V152.62H399.77V176.25C399.77 177.66 400.1 178.74 400.77 179.49C401.44 180.24 402.39 180.62 403.64 180.62C405.04 180.62 406.2 180.21 407.13 179.39L408.53 182.77C407.85 183.39 407.03 183.85 406.08 184.14C405.13 184.43 404.15 184.58 403.12 184.58L403.13 184.59Z" />
  <path d="M424.79 162.19V158.32H440.53V162.19H424.79ZM436.81 184.59C434.33 184.59 432.4 183.89 431.03 182.48C429.66 181.07 428.98 179.06 428.98 176.45V152.62H433.45V176.25C433.45 177.66 433.78 178.74 434.45 179.49C435.12 180.24 436.07 180.62 437.32 180.62C438.72 180.62 439.88 180.21 440.81 179.39L442.21 182.77C441.53 183.39 440.71 183.85 439.76 184.14C438.81 184.43 437.83 184.58 436.8 184.58L436.81 184.59Z" />
  <path d="M458.28 184.59C455.79 184.59 453.59 184.02 451.66 182.87C449.73 181.73 448.21 180.15 447.1 178.14C445.98 176.13 445.42 173.85 445.42 171.3C445.42 168.75 445.98 166.43 447.1 164.43C448.22 162.44 449.74 160.88 451.66 159.75C453.58 158.62 455.79 158.06 458.28 158.06C460.77 158.06 462.93 158.62 464.87 159.75C466.81 160.88 468.33 162.43 469.44 164.41C470.54 166.39 471.09 168.68 471.09 171.3C471.09 173.92 470.54 176.17 469.44 178.17C468.34 180.17 466.82 181.73 464.87 182.88C462.93 184.02 460.73 184.6 458.28 184.6V184.59ZM458.28 180.48C459.86 180.48 461.28 180.1 462.54 179.35C463.8 178.6 464.78 177.53 465.5 176.14C466.22 174.75 466.57 173.14 466.57 171.31C466.57 169.48 466.21 167.84 465.5 166.48C464.79 165.12 463.8 164.07 462.54 163.32C461.28 162.57 459.86 162.19 458.28 162.19C456.7 162.19 455.28 162.57 454.04 163.32C452.8 164.07 451.8 165.13 451.06 166.48C450.31 167.84 449.94 169.45 449.94 171.31C449.94 173.17 450.31 174.75 451.06 176.14C451.81 177.53 452.8 178.6 454.04 179.35C455.28 180.1 456.7 180.48 458.28 180.48Z" />
  <path d="M492.34 184.3V149.98H506.97C510.73 149.98 513.61 150.77 515.63 152.36C517.65 153.95 518.66 156.11 518.66 158.86C518.66 160.72 518.26 162.29 517.47 163.57C516.68 164.84 515.61 165.82 514.28 166.51C512.94 167.2 511.5 167.54 509.95 167.54L510.79 166.07C512.65 166.07 514.3 166.41 515.73 167.1C517.16 167.79 518.29 168.79 519.13 170.12C519.97 171.44 520.39 173.09 520.39 175.05C520.39 177.99 519.34 180.27 517.25 181.89C515.15 183.51 512.04 184.32 507.91 184.32H492.35L492.34 184.3ZM497 180.33H507.71C510.29 180.33 512.26 179.87 513.63 178.96C515 178.04 515.68 176.61 515.68 174.64C515.68 172.67 515 171.19 513.63 170.28C512.26 169.36 510.29 168.91 507.71 168.91H496.58V164.94H506.55C508.91 164.94 510.74 164.48 512.05 163.57C513.36 162.66 514.01 161.28 514.01 159.45C514.01 157.62 513.36 156.25 512.05 155.33C510.75 154.41 508.91 153.96 506.55 153.96H497V180.34V180.33Z" />
  <path d="M538.27 184.59C536.16 184.59 534.3 184.18 532.7 183.36C531.1 182.54 529.86 181.29 528.97 179.61C528.08 177.93 527.64 175.81 527.64 173.26V158.3H532.11V172.72C532.11 175.27 532.69 177.18 533.86 178.46C535.03 179.73 536.66 180.37 538.78 180.37C540.33 180.37 541.68 180.04 542.83 179.37C543.98 178.7 544.86 177.72 545.49 176.43C546.11 175.14 546.42 173.58 546.42 171.75V158.31H550.89V184.3H546.65V177.29L547.35 179.15C546.54 180.88 545.33 182.22 543.72 183.17C542.1 184.12 540.29 184.59 538.27 184.59Z" />
  <path d="M562.58 153.31C561.71 153.31 560.99 153.02 560.41 152.43C559.84 151.84 559.55 151.12 559.55 150.27C559.55 149.42 559.84 148.65 560.41 148.06C560.98 147.47 561.71 147.18 562.58 147.18C563.45 147.18 564.17 147.47 564.75 148.04C565.33 148.61 565.61 149.32 565.61 150.17C565.61 151.02 565.33 151.8 564.77 152.4C564.21 153 563.48 153.31 562.58 153.31ZM560.35 184.3V158.31H564.82V184.3H560.35Z" />
  <path d="M574.28 184.3V147.92H578.75V184.3H574.28Z" />
  <path d="M598.4 184.59C596.01 184.59 593.87 184.03 591.99 182.92C590.11 181.81 588.63 180.26 587.54 178.26C586.45 176.27 585.91 173.94 585.91 171.3C585.91 168.66 586.45 166.34 587.54 164.36C588.63 162.38 590.11 160.84 591.99 159.73C593.87 158.62 596 158.06 598.4 158.06C600.48 158.06 602.36 158.55 604.04 159.53C605.72 160.51 607.06 161.98 608.07 163.94C609.08 165.9 609.58 168.35 609.58 171.3C609.58 174.25 609.09 176.69 608.11 178.66C607.13 180.62 605.8 182.1 604.13 183.1C602.45 184.1 600.54 184.6 598.4 184.6V184.59ZM598.78 180.48C600.33 180.48 601.74 180.1 603 179.35C604.26 178.6 605.25 177.53 605.98 176.14C606.71 174.75 607.07 173.14 607.07 171.31C607.07 169.48 606.7 167.84 605.98 166.48C605.25 165.12 604.26 164.07 603 163.32C601.74 162.57 600.34 162.19 598.78 162.19C597.22 162.19 595.78 162.57 594.54 163.32C593.3 164.07 592.3 165.13 591.56 166.48C590.81 167.84 590.44 169.45 590.44 171.31C590.44 173.17 590.81 174.75 591.56 176.14C592.31 177.53 593.3 178.6 594.54 179.35C595.78 180.1 597.2 180.48 598.78 180.48ZM607.21 184.3V177.29L607.49 171.26L607.02 165.23V147.92H611.49V184.3H607.2H607.21Z" />
  <path d="M619.13 191.56L621.46 181.66L622.07 184.5C621.17 184.5 620.42 184.21 619.81 183.62C619.2 183.03 618.9 182.23 618.9 181.22C618.9 180.21 619.2 179.44 619.81 178.82C620.42 178.2 621.15 177.89 622.02 177.89C622.89 177.89 623.65 178.21 624.21 178.85C624.77 179.49 625.05 180.28 625.05 181.23C625.05 181.56 625.03 181.88 624.98 182.19C624.93 182.5 624.86 182.86 624.75 183.27C624.64 183.68 624.48 184.18 624.26 184.77L622.07 191.59H619.14L619.13 191.56Z" />
  <path d="M646.53 184.3V149.98H661.16C664.92 149.98 667.8 150.77 669.82 152.36C671.84 153.95 672.85 156.11 672.85 158.86C672.85 160.72 672.45 162.29 671.66 163.57C670.87 164.84 669.8 165.82 668.47 166.51C667.13 167.2 665.69 167.54 664.14 167.54L664.98 166.07C666.84 166.07 668.49 166.41 669.92 167.1C671.35 167.79 672.48 168.79 673.32 170.12C674.16 171.44 674.58 173.09 674.58 175.05C674.58 177.99 673.53 180.27 671.44 181.89C669.34 183.51 666.23 184.32 662.1 184.32H646.54L646.53 184.3ZM651.18 180.33H661.89C664.47 180.33 666.44 179.87 667.81 178.96C669.18 178.04 669.86 176.61 669.86 174.64C669.86 172.67 669.18 171.19 667.81 170.28C666.44 169.36 664.47 168.91 661.89 168.91H650.76V164.94H660.73C663.09 164.94 664.92 164.48 666.23 163.57C667.54 162.66 668.19 161.28 668.19 159.45C668.19 157.62 667.54 156.25 666.23 155.33C664.93 154.41 663.09 153.96 660.73 153.96H651.18V180.34V180.33Z" />
  <path d="M692.46 184.59C690.35 184.59 688.49 184.18 686.89 183.36C685.29 182.54 684.05 181.29 683.16 179.61C682.27 177.93 681.83 175.81 681.83 173.26V158.3H686.3V172.72C686.3 175.27 686.88 177.18 688.05 178.46C689.22 179.73 690.85 180.37 692.97 180.37C694.52 180.37 695.87 180.04 697.02 179.37C698.17 178.7 699.05 177.72 699.68 176.43C700.3 175.14 700.61 173.58 700.61 171.75V158.31H705.08V184.3H700.84V177.29L701.54 179.15C700.73 180.88 699.52 182.22 697.91 183.17C696.29 184.12 694.48 184.59 692.46 184.59Z" />
  <path d="M716.77 153.31C715.9 153.31 715.18 153.02 714.6 152.43C714.03 151.84 713.74 151.12 713.74 150.27C713.74 149.42 714.03 148.65 714.6 148.06C715.17 147.47 715.9 147.18 716.77 147.18C717.64 147.18 718.36 147.47 718.94 148.04C719.52 148.61 719.8 149.32 719.8 150.17C719.8 151.02 719.52 151.8 718.96 152.4C718.4 153 717.67 153.31 716.77 153.31ZM714.54 184.3V158.31H719.01V184.3H714.54Z" />
  <path d="M728.46 184.3V147.92H732.93V184.3H728.46Z" />
  <path d="M739.46 162.19V158.32H755.2V162.19H739.46ZM751.47 184.59C748.99 184.59 747.06 183.89 745.69 182.48C744.32 181.07 743.64 179.06 743.64 176.45V152.62H748.11V176.25C748.11 177.66 748.44 178.74 749.11 179.49C749.78 180.24 750.73 180.62 751.98 180.62C753.38 180.62 754.54 180.21 755.47 179.39L756.87 182.77C756.19 183.39 755.37 183.85 754.42 184.14C753.47 184.43 752.49 184.58 751.46 184.58L751.47 184.59Z" />
  <path d="M773.14 162.19V158.32H788.88V162.19H773.14ZM785.15 184.59C782.67 184.59 780.74 183.89 779.37 182.48C778 181.07 777.32 179.06 777.32 176.45V152.62H781.79V176.25C781.79 177.66 782.12 178.74 782.79 179.49C783.46 180.24 784.41 180.62 785.66 180.62C787.06 180.62 788.22 180.21 789.15 179.39L790.55 182.77C789.87 183.39 789.05 183.85 788.1 184.14C787.15 184.43 786.17 184.58 785.14 184.58L785.15 184.59Z" />
  <path d="M806.63 184.59C804.14 184.59 801.94 184.02 800.01 182.87C798.08 181.73 796.56 180.15 795.45 178.14C794.33 176.13 793.77 173.85 793.77 171.3C793.77 168.75 794.33 166.43 795.45 164.43C796.57 162.44 798.09 160.88 800.01 159.75C801.93 158.62 804.14 158.06 806.63 158.06C809.12 158.06 811.28 158.62 813.22 159.75C815.16 160.88 816.68 162.43 817.79 164.41C818.89 166.39 819.44 168.68 819.44 171.3C819.44 173.92 818.89 176.17 817.79 178.17C816.69 180.17 815.17 181.73 813.22 182.88C811.28 184.02 809.08 184.6 806.63 184.6V184.59ZM806.63 180.48C808.21 180.48 809.63 180.1 810.89 179.35C812.15 178.6 813.13 177.53 813.85 176.14C814.57 174.75 814.92 173.14 814.92 171.31C814.92 169.48 814.56 167.84 813.85 166.48C813.14 165.12 812.15 164.07 810.89 163.32C809.63 162.57 808.21 162.19 806.63 162.19C805.05 162.19 803.63 162.57 802.39 163.32C801.15 164.07 800.15 165.13 799.41 166.48C798.66 167.84 798.29 169.45 798.29 171.31C798.29 173.17 798.66 174.75 799.41 176.14C800.16 177.53 801.15 178.6 802.39 179.35C803.63 180.1 805.05 180.48 806.63 180.48Z" />
  <path d="M840.68 184.3V149.98H845.34V180.04H862.99V184.31H840.68V184.3Z" />
  <path d="M875.85 184.59C874.02 184.59 872.41 184.26 871.03 183.61C869.65 182.96 868.58 182.05 867.84 180.89C867.09 179.73 866.72 178.41 866.72 176.94C866.72 175.47 867.04 174.26 867.68 173.12C868.32 171.98 869.36 171.06 870.8 170.37C872.24 169.68 874.19 169.34 876.65 169.34H884.48V172.72H876.84C874.6 172.72 873.1 173.11 872.32 173.9C871.54 174.69 871.16 175.63 871.16 176.74C871.16 178.02 871.64 179.04 872.6 179.81C873.56 180.58 874.9 180.96 876.61 180.96C878.32 180.96 879.75 180.57 881.01 179.78C882.27 178.99 883.18 177.85 883.74 176.35L884.62 179.59C884.03 181.13 882.99 182.34 881.5 183.24C880.01 184.14 878.13 184.59 875.86 184.59H875.85ZM883.96 184.3V178.81L883.73 177.78V168.41C883.73 166.42 883.18 164.87 882.08 163.78C880.98 162.69 879.32 162.14 877.12 162.14C875.66 162.14 874.23 162.39 872.83 162.9C871.43 163.41 870.25 164.09 869.29 164.94L867.43 161.41C868.7 160.33 870.23 159.51 872.02 158.93C873.81 158.36 875.68 158.07 877.63 158.07C881.01 158.07 883.62 158.94 885.46 160.67C887.29 162.4 888.21 165.05 888.21 168.61V184.3H883.97H883.96Z" />
  <path d="M904.5 184.59C902.45 184.59 900.5 184.3 898.65 183.71C896.8 183.12 895.35 182.4 894.29 181.55L896.15 177.82C897.21 178.57 898.51 179.21 900.06 179.73C901.61 180.25 903.2 180.52 904.81 180.52C906.89 180.52 908.39 180.21 909.31 179.59C910.23 178.97 910.68 178.1 910.68 176.99C910.68 176.17 910.4 175.53 909.84 175.08C909.28 174.62 908.54 174.28 907.63 174.05C906.72 173.82 905.7 173.62 904.58 173.44C903.46 173.26 902.34 173.03 901.23 172.75C900.11 172.47 899.09 172.08 898.16 171.57C897.23 171.06 896.48 170.36 895.92 169.46C895.36 168.56 895.08 167.36 895.08 165.86C895.08 164.36 895.5 162.92 896.34 161.74C897.18 160.56 898.37 159.66 899.9 159.02C901.43 158.38 903.26 158.06 905.37 158.06C906.98 158.06 908.62 158.26 910.28 158.67C911.94 159.08 913.3 159.66 914.36 160.41L912.45 164.14C911.33 163.36 910.17 162.82 908.96 162.52C907.75 162.23 906.54 162.08 905.33 162.08C903.37 162.08 901.91 162.42 900.95 163.09C899.99 163.76 899.51 164.62 899.51 165.66C899.51 166.54 899.8 167.22 900.37 167.7C900.94 168.17 901.69 168.54 902.61 168.8C903.53 169.06 904.54 169.28 905.66 169.46C906.78 169.64 907.9 169.87 909.01 170.15C910.13 170.43 911.14 170.81 912.06 171.3C912.98 171.79 913.72 172.48 914.3 173.36C914.87 174.24 915.16 175.42 915.16 176.89C915.16 178.46 914.72 179.82 913.86 180.96C912.99 182.1 911.76 182.99 910.18 183.63C908.6 184.27 906.7 184.59 904.5 184.59Z" />
  <path d="M918.15 162.19V158.32H933.89V162.19H918.15ZM930.17 184.59C927.69 184.59 925.76 183.89 924.39 182.48C923.02 181.07 922.34 179.06 922.34 176.45V152.62H926.81V176.25C926.81 177.66 927.14 178.74 927.81 179.49C928.48 180.24 929.43 180.62 930.68 180.62C932.08 180.62 933.24 180.21 934.17 179.39L935.57 182.77C934.89 183.39 934.07 183.85 933.12 184.14C932.17 184.43 931.19 184.58 930.16 184.58L930.17 184.59Z" />
</svg>
