<?xml version="1.0" encoding="UTF-8" standalone="no"?>
<!DOCTYPE svg PUBLIC "-//W3C//DTD SVG 1.1//EN" "http://www.w3.org/Graphics/SVG/1.1/DTD/svg11.dtd">
<svg width="100%" height="100%" viewBox="0 0 1001 191" version="1.1" xmlns="http://www.w3.org/2000/svg" xmlns:xlink="http://www.w3.org/1999/xlink" xml:space="preserve" xmlns:serif="http://www.serif.com/" style="fill-rule:evenodd;clip-rule:evenodd;stroke-linejoin:round;stroke-miterlimit:2;">
    <g transform="matrix(1,0,0,1,-3910,-17235)">
        <g id="svg-fs_text-dark-medium" transform="matrix(0.532496,0,0,0.488321,3799.730195,17956.59043)">
            <rect x="207.277" y="-1475.726" width="1877.95" height="388.883" style="fill:none;"/>
            <clipPath id="_clip1">
                <rect x="207.277" y="-1475.726" width="1877.95" height="388.883"/>
            </clipPath>
            <g clip-path="url(#_clip1)">
                <g transform="matrix(1.262017,0,0,0.855861,-13442.464424,-1622.049196)">
                    <path d="M10815.812,619.059L10858.99,619.059L10858.99,426.556L10914.728,426.556L10914.728,363.441L10858.99,363.441L10858.99,240.365L10930.036,240.365L10930.036,177.249L10815.812,177.249L10815.812,619.059Z" style="fill:rgb(255,255,255);fill-rule:nonzero;"/>
                </g>
                <g transform="matrix(1.262017,0,0,0.855861,-13442.464424,-1622.049196)">
                    <path d="M10924.934,619.059L10964.971,619.059L10972.821,532.591L11021.887,532.591L11021.887,531.328L11029.737,619.059L11072.915,619.059L11028.167,177.249L10969.681,177.249L10924.934,619.059ZM10977.924,472.631L10996.765,254.251L10997.55,254.251L11016.784,472.631L10977.924,472.631Z" style="fill:rgb(255,255,255);fill-rule:nonzero;"/>
                </g>
                <g transform="matrix(1.262017,0,0,0.855861,-13442.464424,-1622.049196)">
                    <path d="M11146.709,625.371C11189.102,625.371 11211.868,584.977 11211.868,513.025C11211.868,458.114 11200.485,422.769 11164.373,371.646C11136.111,331.883 11127.083,308.53 11127.083,276.341C11127.083,246.045 11134.933,234.054 11148.672,234.054C11162.41,234.054 11170.26,246.045 11170.26,277.603L11170.26,300.325L11211.083,300.325L11211.083,282.021C11211.083,211.332 11190.279,170.938 11148.279,170.938C11106.279,170.938 11083.905,211.332 11083.905,280.759C11083.905,331.252 11095.681,367.228 11131.793,418.351C11160.055,458.114 11168.69,481.467 11168.69,518.074C11168.69,550.894 11160.055,562.255 11146.317,562.255C11132.578,562.255 11123.943,550.894 11123.943,519.336L11123.943,489.041L11083.12,489.041L11083.12,514.287C11083.12,584.977 11104.317,625.371 11146.709,625.371Z" style="fill:rgb(255,255,255);fill-rule:nonzero;"/>
                </g>
                <g transform="matrix(1.262017,0,0,0.855861,-13442.464424,-1622.049196)">
                    <path d="M11268.391,619.059L11311.569,619.059L11311.569,240.365L11356.709,240.365L11356.709,177.249L11223.251,177.249L11223.251,240.365L11268.391,240.365L11268.391,619.059Z" style="fill:rgb(255,255,255);fill-rule:nonzero;"/>
                </g>
                <g transform="matrix(1.262017,0,0,0.855861,-13442.464424,-1622.049196)">
                    <path d="M11492.522,625.371C11534.914,625.371 11557.68,584.977 11557.68,513.025C11557.68,458.114 11546.297,422.769 11510.185,371.646C11481.924,331.883 11472.896,308.53 11472.896,276.341C11472.896,246.045 11480.746,234.054 11494.484,234.054C11508.223,234.054 11516.073,246.045 11516.073,277.603L11516.073,300.325L11556.895,300.325L11556.895,282.021C11556.895,211.332 11536.092,170.938 11494.092,170.938C11452.092,170.938 11429.718,211.332 11429.718,280.759C11429.718,331.252 11441.494,367.228 11477.606,418.351C11505.867,458.114 11514.503,481.467 11514.503,518.074C11514.503,550.894 11505.867,562.255 11492.129,562.255C11478.391,562.255 11469.755,550.894 11469.755,519.336L11469.755,489.041L11428.933,489.041L11428.933,514.287C11428.933,584.977 11450.129,625.371 11492.522,625.371Z" style="fill:rgb(255,255,255);fill-rule:nonzero;"/>
                </g>
                <g transform="matrix(1.262017,0,0,0.855861,-13442.464424,-1622.049196)">
                    <path d="M11614.204,619.059L11657.381,619.059L11657.381,240.365L11702.521,240.365L11702.521,177.249L11569.064,177.249L11569.064,240.365L11614.204,240.365L11614.204,619.059Z" style="fill:rgb(255,255,255);fill-rule:nonzero;"/>
                </g>
                <g transform="matrix(1.262017,0,0,0.855861,-13442.464424,-1622.049196)">
                    <path d="M11721.362,619.059L11764.54,619.059L11764.54,429.712L11779.456,429.712C11799.082,429.712 11806.54,442.966 11806.54,483.992L11806.54,564.78C11806.54,600.756 11808.11,607.698 11810.465,619.059L11854.428,619.059C11850.11,602.649 11849.717,586.87 11849.717,565.411L11849.717,487.779C11849.717,437.917 11842.652,405.097 11821.063,394.367L11821.063,393.105C11840.297,380.482 11849.325,351.449 11849.325,306.005L11849.325,278.866C11849.325,210.701 11830.091,177.249 11785.344,177.249L11721.362,177.249L11721.362,619.059ZM11764.54,366.596L11764.54,240.365L11784.166,240.365C11799.475,240.365 11806.147,254.251 11806.147,285.808L11806.147,319.891C11806.147,355.236 11796.334,366.596 11780.241,366.596L11764.54,366.596Z" style="fill:rgb(255,255,255);fill-rule:nonzero;"/>
                </g>
                <g transform="matrix(1.262017,0,0,0.855861,-13442.464424,-1622.049196)">
                    <path d="M11940.39,625.371C11982.783,625.371 12004.764,584.977 12004.764,514.287L12004.764,177.249L11963.157,177.249L11963.157,519.336C11963.157,550.894 11954.914,562.255 11941.175,562.255C11927.437,562.255 11919.194,550.894 11919.194,519.336L11919.194,177.249L11876.017,177.249L11876.017,514.287C11876.017,584.977 11897.998,625.371 11940.39,625.371Z" style="fill:rgb(255,255,255);fill-rule:nonzero;"/>
                </g>
                <g transform="matrix(1.262017,0,0,0.855861,-13442.464424,-1622.049196)">
                    <path d="M12094.259,625.371C12135.867,625.371 12157.848,584.977 12157.848,516.812L12157.848,454.327L12117.026,454.327L12117.026,521.861C12117.026,550.894 12108.39,562.255 12095.437,562.255C12082.484,562.255 12073.848,550.894 12073.848,521.861L12073.848,275.079C12073.848,246.045 12082.484,234.054 12095.437,234.054C12108.39,234.054 12117.026,246.045 12117.026,275.079L12117.026,326.202L12157.848,326.202L12157.848,279.497C12157.848,211.332 12135.867,170.938 12094.259,170.938C12052.652,170.938 12030.671,211.332 12030.671,279.497L12030.671,516.812C12030.671,584.977 12052.652,625.371 12094.259,625.371Z" style="fill:rgb(255,255,255);fill-rule:nonzero;"/>
                </g>
                <g transform="matrix(1.262017,0,0,0.855861,-13442.464424,-1622.049196)">
                    <path d="M12215.549,619.059L12258.726,619.059L12258.726,240.365L12303.866,240.365L12303.866,177.249L12170.409,177.249L12170.409,240.365L12215.549,240.365L12215.549,619.059Z" style="fill:rgb(255,255,255);fill-rule:nonzero;"/>
                </g>
            </g>
        </g>
    </g>
</svg>
