<svg width="74" height="57" viewBox="0 0 74 57" fill="none" xmlns="http://www.w3.org/2000/svg">
<path d="M0.360299 49.2559C0.360299 51.1678 1.91195 52.7194 3.82385 52.7194L9.04334 53.2839V35.9321C9.04334 35.4867 9.25609 35.0981 9.57946 34.8428C9.85462 34.4513 10.317 34.2074 10.8248 34.2528L35.2597 36.2526C36.0228 36.315 36.5929 36.9845 36.5305 37.7504C36.471 38.4765 35.8639 39.0269 35.1491 39.0269C35.1122 39.0269 35.0725 39.0269 35.0356 39.0212L11.8204 37.1235V53.5875L39.8126 56.5149C40.6465 56.6028 41.3699 55.9476 41.3699 55.1108V26.0065L10.4248 23.55C9.66737 23.4904 9.01497 22.8692 9.04334 22.109C9.0717 21.3147 9.74399 20.7105 10.5411 20.7729L41.3699 23.2209V15.0088C41.3699 13.2756 40.0338 11.8346 38.3063 11.7041L1.22264 8.8986C0.558865 8.84754 -0.00563092 9.378 4.23962e-05 10.0446L0.360299 49.2616V49.2559Z" fill="white"/>
<path d="M34.4795 0C30.8089 0 28.8913 -3.78736e-06 24.5341 1.01552L2.89325 5.58256C2.55285 5.71305 2.6266 6.21513 2.9897 6.2435L40.3543 9.07166C41.7953 9.17945 43.2448 8.94401 44.5752 8.37951L70.403 2.39415C70.647 2.28919 70.5874 1.92893 70.3236 1.90907L34.4824 0H34.4795Z" fill="white"/>
<path d="M54.6054 24.9258C54.4266 25.0024 54.2394 25.0393 54.0579 25.0393C53.5189 25.0393 53.0083 24.7244 52.7814 24.1996C52.4779 23.4961 52.8041 22.6791 53.5076 22.3756L73.9939 17.1051V5.76127C73.9939 5.76127 73.9939 5.74993 73.9939 5.74426C73.9883 4.85922 73.021 4.30323 72.2068 4.6493L46.3081 10.663C44.9976 11.219 44.1494 12.5012 44.1494 13.9252V24.5145C44.1664 24.6194 44.1721 24.7244 44.1636 24.835C44.1636 24.8549 44.1523 24.8691 44.1494 24.8889V41.2536L63.7763 35.9803C64.4741 35.6597 65.2967 35.9633 65.6201 36.6582C65.9407 37.3532 65.6371 38.1787 64.9421 38.5021L44.192 44.2945C44.192 44.2945 44.1636 44.3031 44.1522 44.3087V55.1873C44.1522 56.027 45.0231 56.5858 45.7862 56.2341L71.6849 48.5354C73.0947 47.8858 73.9996 46.4731 73.9996 44.9186V20.129L54.611 24.9286L54.6054 24.9258Z" fill="white"/>
</svg>
